<svg width="912" height="912" viewBox="0 0 912 912" fill="none" xmlns="http://www.w3.org/2000/svg">
<rect x="0.359375" y="0.660156" width="910.875" height="910.875" rx="455.438" fill="#F5F5F5"/>
<g clip-path="url(#clip0_292_2904)">
<path d="M713.211 456.416V268.38L659.905 214.52H259.595L206.289 267.826V455.862M335.079 302.439L375.078 343.23M375.474 302.835L334.683 342.755M545.61 302.439L585.53 343.23M585.926 302.835L545.214 342.755M545.61 427.823L585.53 468.614M585.926 428.219L545.214 468.218" stroke="black" stroke-width="16.6751" stroke-linecap="round" stroke-linejoin="round"/>
<path d="M483.51 293.736C485.61 293.736 487.625 292.901 489.11 291.416C490.596 289.931 491.43 287.916 491.43 285.815C491.43 283.714 490.596 281.7 489.11 280.214C487.625 278.729 485.61 277.895 483.51 277.895V293.736ZM443.906 285.815V277.895C441.806 277.895 439.791 278.729 438.306 280.214C436.82 281.7 435.986 283.714 435.986 285.815H443.906ZM435.986 325.418C435.986 327.519 436.82 329.534 438.306 331.019C439.791 332.505 441.806 333.339 443.906 333.339C446.007 333.339 448.022 332.505 449.507 331.019C450.993 329.534 451.827 327.519 451.827 325.418H435.986ZM473.054 315.042L467.431 320.611C467.668 320.856 467.922 321.086 468.191 321.292L473.054 315.042ZM483.51 277.895H443.906V293.736H483.51V277.895ZM435.986 285.815V325.418H451.827V285.815H435.986ZM437.174 290.037L467.431 320.611L478.678 309.466L448.421 278.893L437.174 290.037ZM468.191 321.292C476.777 327.972 483.895 336.349 489.102 345.901L503.01 338.321C496.763 326.86 488.221 316.808 477.918 308.793L468.191 321.292ZM489.102 345.901C494.308 355.455 497.489 365.978 498.448 376.816L514.226 375.422C513.075 362.416 509.257 349.787 503.01 338.321L489.102 345.901ZM498.448 376.816C499.411 387.653 498.13 398.573 494.686 408.894L509.711 413.908C513.844 401.523 515.381 388.427 514.226 375.422L498.448 376.816ZM494.686 408.894C491.239 419.214 485.704 428.713 478.425 436.799L490.203 447.397C498.936 437.692 505.577 426.292 509.711 413.908L494.686 408.894ZM478.425 436.799C471.146 444.882 462.281 451.38 452.382 455.887L458.948 470.303C470.828 464.895 481.468 457.097 490.203 447.397L478.425 436.799ZM452.382 455.887C442.481 460.396 431.758 462.818 420.881 463L421.142 478.842C434.196 478.624 447.065 475.712 458.948 470.303L452.374 455.895L452.382 455.887ZM420.881 463C410.001 463.184 399.2 461.124 389.151 456.949L383.076 471.578C395.131 476.588 408.089 479.06 421.142 478.842L420.881 463ZM389.151 456.949C385.23 455.317 381.452 453.385 377.856 451.151L369.516 464.616C373.832 467.293 378.363 469.622 383.076 471.578L389.151 456.949Z" fill="black"/>
<path d="M330.098 451.328C330.099 457.63 332.603 463.674 337.06 468.13C341.517 472.585 347.562 475.087 353.864 475.086C360.166 475.085 366.209 472.581 370.665 468.124C375.12 463.667 377.623 457.623 377.622 451.32C377.621 445.018 375.116 438.975 370.659 434.519C366.202 430.064 360.158 427.561 353.856 427.563C347.554 427.564 341.51 430.068 337.055 434.525C332.599 438.982 330.097 445.026 330.098 451.328ZM416.195 575.683V548.04C416.195 537.536 420.368 527.463 427.795 520.036C435.222 512.609 445.295 508.436 455.798 508.436C466.302 508.436 476.375 512.609 483.802 520.036C491.229 527.463 495.402 537.536 495.402 548.04V575.683C495.402 586.186 491.229 596.259 483.802 603.686C476.375 611.114 466.302 615.286 455.798 615.286C445.295 615.286 435.222 611.114 427.795 603.686C420.368 596.259 416.195 586.186 416.195 575.683Z" stroke="black" stroke-width="16.6751" stroke-linecap="round" stroke-linejoin="round"/>
<path d="M474.869 608.431C474.869 624.272 491.503 636.708 491.503 636.708L529.363 646.292C539.264 654.212 553.759 676.311 553.759 684.627M357.723 684.627C357.723 676.707 372.217 654.291 382.118 646.292L419.979 636.708C424.285 633.235 427.855 628.939 430.48 624.07C433.105 619.201 434.732 613.857 435.266 608.352" stroke="black" stroke-width="16.6751" stroke-linejoin="round"/>
<path d="M249.852 569.599V551.778C249.863 543.538 252.728 535.557 257.959 529.191C263.191 522.825 270.466 518.468 278.547 516.861C286.628 515.253 295.017 516.495 302.286 520.374C309.556 524.253 315.257 530.53 318.421 538.138C320.219 542.463 321.137 547.097 321.137 551.778V569.599C321.137 579.052 317.382 588.118 310.698 594.803C304.014 601.487 294.948 605.242 285.495 605.242C276.041 605.242 266.975 601.487 260.291 594.803C253.607 588.118 249.852 579.052 249.852 569.599Z" stroke="black" stroke-width="16.6751" stroke-linecap="round" stroke-linejoin="round"/>
<path d="M298.638 605.714C298.929 609.919 300.518 613.929 303.185 617.192C305.852 620.455 309.466 622.81 313.529 623.932L347.429 632.486C348.855 633.618 350.17 634.862 351.39 636.209M194.402 674.782C194.402 667.337 194.402 643.1 215.55 632.486L249.53 623.932C253.437 622.709 256.847 620.262 259.257 616.953C261.665 613.643 265.007 606.72 264.975 602.625" stroke="black" stroke-width="16.6751" stroke-linejoin="round"/>
<path d="M669.645 569.617V551.795C669.645 547.115 668.723 542.48 666.932 538.155C665.141 533.831 662.515 529.902 659.206 526.592C655.896 523.282 651.967 520.657 647.642 518.865C643.318 517.074 638.683 516.152 634.002 516.152C629.322 516.152 624.687 517.074 620.362 518.865C616.038 520.657 612.109 523.282 608.799 526.592C605.489 529.902 602.864 533.831 601.073 538.155C599.281 542.48 598.359 547.115 598.359 551.795V569.617C598.359 574.297 599.281 578.932 601.073 583.257C602.864 587.581 605.489 591.51 608.799 594.82C612.109 598.13 616.038 600.755 620.362 602.547C624.687 604.338 629.322 605.26 634.002 605.26C638.683 605.26 643.318 604.338 647.642 602.547C651.967 600.755 655.896 598.13 659.206 594.82C662.515 591.51 665.141 587.581 666.932 583.257C668.723 578.932 669.645 574.297 669.645 569.617Z" stroke="black" stroke-width="16.6751" stroke-linecap="round" stroke-linejoin="round"/>
<path d="M560.102 636.209C561.321 634.862 562.636 633.618 564.062 632.486L598.042 623.932C602.103 622.812 605.718 620.46 608.386 617.199C611.055 613.928 613.194 606.823 613.487 602.625M717.168 674.782C717.168 667.337 717.168 643.1 695.941 632.486L662.04 623.932C658.119 622.723 654.691 620.282 652.266 616.972C649.841 613.663 648.546 609.659 648.575 605.556" stroke="black" stroke-width="16.6751" stroke-linejoin="round"/>
</g>
<defs>
<clipPath id="clip0_292_2904">
<rect width="910.875" height="910.875" fill="white" transform="translate(0.359375 0.660156)"/>
</clipPath>
</defs>
</svg>
