<svg width="713" height="99" viewBox="0 0 713 99" fill="none" xmlns="http://www.w3.org/2000/svg">
<path d="M33.4498 4.42362H48.5243L82.4419 74.5469H67.502L61.8939 62.7475H20.9326L15.504 74.5469H0.519242L33.4498 4.42362ZM56.2859 51.0379L41.1216 19.184L26.3612 51.0379H56.2859ZM92.0429 0.116623H105.323V74.5469H92.0429V0.116623ZM122.73 0.116623H136.01V74.5469H122.73V0.116623ZM153.059 21.5619H166.294V47.4038C166.294 49.8564 166.563 52.0997 167.101 54.1335C167.64 56.1375 168.552 57.8573 169.838 59.2929C171.154 60.7286 172.889 61.8502 175.042 62.6578C177.226 63.4354 179.932 63.8243 183.163 63.8243C184.688 63.8243 186.228 63.6597 187.784 63.3307C189.369 63.0017 190.879 62.5531 192.315 61.9848C193.751 61.3866 195.082 60.6837 196.308 59.8762C197.564 59.0686 198.641 58.1863 199.538 57.2292V21.5619H212.818V74.5469H199.538V70.0156C196.278 71.9597 193.003 73.3505 189.713 74.188C186.423 75.0254 183.297 75.4442 180.336 75.4442C175.491 75.4442 171.333 74.8609 167.864 73.6944C164.424 72.528 161.598 70.8381 159.385 68.6248C157.201 66.3815 155.601 63.6448 154.584 60.4145C153.567 57.1544 153.059 53.4456 153.059 49.2881V21.5619ZM261.855 4.42362H287.563C295.07 4.42362 301.59 5.23118 307.123 6.8463C312.657 8.46143 317.233 10.7794 320.852 13.8003C324.501 16.7913 327.208 20.4403 328.972 24.7472C330.767 29.0243 331.664 33.8398 331.664 39.1936C331.664 44.2783 330.782 48.989 329.017 53.326C327.253 57.6329 324.561 61.3717 320.942 64.5421C317.323 67.6826 312.746 70.1502 307.213 71.9447C301.68 73.7094 295.16 74.5917 287.652 74.5917L261.855 74.5469V4.42362ZM291.062 62.254C295.309 62.254 299.033 61.7156 302.233 60.6389C305.434 59.5322 308.096 57.9769 310.219 55.973C312.373 53.969 313.988 51.5463 315.064 48.7049C316.141 45.8635 316.68 42.6931 316.68 39.1936C316.68 35.754 316.141 32.6584 315.064 29.9067C313.988 27.1251 312.373 24.7772 310.219 22.8629C308.096 20.9188 305.434 19.4233 302.233 18.3765C299.033 17.3296 295.309 16.8062 291.062 16.8062H276.077V62.254H291.062ZM344.271 0.161488H357.551V25.6445C360.333 24.1191 363.428 22.9078 366.838 22.0105C370.278 21.1132 373.882 20.6646 377.65 20.6646C382.017 20.6646 385.935 21.3076 389.405 22.5938C392.904 23.8799 395.865 25.7343 398.288 28.157C400.711 30.5497 402.565 33.4659 403.851 36.9055C405.167 40.3451 405.825 44.2185 405.825 48.5254V74.5469H392.59V49.0638C392.59 46.5514 392.187 44.2633 391.379 42.1996C390.571 40.1059 389.39 38.3113 387.835 36.8158C386.279 35.3203 384.38 34.1688 382.137 33.3612C379.924 32.5238 377.411 32.105 374.6 32.105C371.22 32.105 368.079 32.6434 365.178 33.7202C362.277 34.7969 359.735 36.1578 357.551 37.8028V74.5469H344.271V0.161488ZM418.208 47.8973C418.208 44.3082 418.941 40.8835 420.406 37.6234C421.872 34.3333 423.981 31.4321 426.732 28.9197C429.484 26.4072 432.849 24.4033 436.827 22.9078C440.835 21.4123 445.381 20.6646 450.466 20.6646C455.52 20.6646 460.067 21.4273 464.104 22.9527C468.172 24.4482 471.612 26.5119 474.423 29.144C477.265 31.776 479.433 34.8717 480.929 38.4309C482.454 41.9902 483.217 45.8037 483.217 49.8714C483.217 50.3798 483.202 50.9332 483.172 51.5314C483.172 52.0997 483.142 52.6231 483.082 53.1016H433.013C433.582 54.6868 434.494 56.1375 435.75 57.4535C437.036 58.7695 438.636 59.9061 440.551 60.8632C442.465 61.8203 444.678 62.568 447.19 63.1064C449.703 63.6149 452.484 63.8691 455.535 63.8691C458.586 63.8691 461.622 63.5551 464.643 62.927C467.664 62.2689 470.55 61.4464 473.302 60.4594L477.788 70.5988C476.053 71.4064 474.289 72.1242 472.494 72.7523C470.729 73.3505 468.875 73.859 466.931 74.2777C465.017 74.6665 462.998 74.9656 460.874 75.175C458.78 75.3843 456.567 75.489 454.234 75.489C448.282 75.489 443.063 74.7712 438.576 73.3355C434.09 71.8999 430.336 69.9408 427.315 67.4583C424.295 64.9758 422.021 62.0596 420.496 58.7097C418.971 55.3598 418.208 51.7557 418.208 47.8973ZM469.129 42.7379C468.651 41.2724 467.903 39.9115 466.886 38.6553C465.899 37.3691 464.658 36.2625 463.162 35.3353C461.667 34.3782 459.932 33.6304 457.958 33.0921C455.984 32.5537 453.815 32.2845 451.453 32.2845C448.94 32.2845 446.652 32.5686 444.588 33.1369C442.525 33.7052 440.715 34.4679 439.16 35.425C437.604 36.3821 436.303 37.4888 435.257 38.745C434.24 40.0012 433.492 41.3322 433.013 42.7379H469.129ZM495.016 47.8973C495.016 44.3082 495.749 40.8835 497.214 37.6234C498.68 34.3333 500.789 31.4321 503.54 28.9197C506.292 26.4072 509.657 24.4033 513.635 22.9078C517.643 21.4123 522.189 20.6646 527.274 20.6646C532.328 20.6646 536.875 21.4273 540.912 22.9527C544.98 24.4482 548.42 26.5119 551.231 29.144C554.073 31.776 556.241 34.8717 557.737 38.4309C559.262 41.9902 560.025 45.8037 560.025 49.8714C560.025 50.3798 560.01 50.9332 559.98 51.5314C559.98 52.0997 559.95 52.6231 559.89 53.1016H509.821C510.39 54.6868 511.302 56.1375 512.558 57.4535C513.844 58.7695 515.444 59.9061 517.359 60.8632C519.273 61.8203 521.486 62.568 523.999 63.1064C526.511 63.6149 529.293 63.8691 532.343 63.8691C535.394 63.8691 538.43 63.5551 541.451 62.927C544.472 62.2689 547.358 61.4464 550.11 60.4594L554.596 70.5988C552.861 71.4064 551.097 72.1242 549.302 72.7523C547.537 73.3505 545.683 73.859 543.739 74.2777C541.825 74.6665 539.806 74.9656 537.682 75.175C535.589 75.3843 533.375 75.489 531.042 75.489C525.09 75.489 519.871 74.7712 515.385 73.3355C510.898 71.8999 507.144 69.9408 504.124 67.4583C501.103 64.9758 498.83 62.0596 497.304 58.7097C495.779 55.3598 495.016 51.7557 495.016 47.8973ZM545.937 42.7379C545.459 41.2724 544.711 39.9115 543.694 38.6553C542.707 37.3691 541.466 36.2625 539.97 35.3353C538.475 34.3782 536.74 33.6304 534.766 33.0921C532.792 32.5537 530.624 32.2845 528.261 32.2845C525.748 32.2845 523.46 32.5686 521.396 33.1369C519.333 33.7052 517.523 34.4679 515.968 35.425C514.413 36.3821 513.111 37.4888 512.065 38.745C511.048 40.0012 510.3 41.3322 509.821 42.7379H545.937ZM574.337 21.6067H587.616V29.2337C590.548 27.0503 593.643 25.166 596.903 23.5808C600.164 21.9956 603.409 20.7842 606.639 19.9467L610.542 32.105C605.428 32.6135 600.926 33.765 597.038 35.5596C593.18 37.3243 590.039 39.8217 587.616 43.052V74.5469H574.337V21.6067ZM617.945 57.8573C617.945 55.3149 618.498 52.9969 619.605 50.9033C620.712 48.8096 622.372 47.015 624.585 45.5195C626.798 43.9941 629.55 42.8277 632.84 42.0201C636.16 41.1826 640.018 40.7639 644.415 40.7639C647.675 40.7639 651.1 41.0032 654.689 41.4817C658.308 41.9603 662.032 42.6931 665.86 43.6801C665.711 42.0051 665.202 40.4648 664.335 39.059C663.467 37.6234 662.256 36.3971 660.701 35.3801C659.175 34.3333 657.321 33.5257 655.138 32.9575C652.984 32.3892 650.531 32.105 647.78 32.105C646.284 32.105 644.639 32.1948 642.845 32.3742C641.05 32.5537 639.196 32.8229 637.281 33.1818C635.367 33.5407 633.468 33.9893 631.584 34.5277C629.729 35.0661 627.995 35.7091 626.379 36.4569L622.342 25.5548C624.346 24.837 626.484 24.179 628.757 23.5808C631.06 22.9826 633.408 22.4741 635.801 22.0554C638.194 21.6067 640.587 21.2628 642.979 21.0235C645.372 20.7842 647.69 20.6646 649.933 20.6646C659.833 20.6646 667.191 23.1919 672.007 28.2467C676.822 33.3014 679.23 41.048 679.23 51.4865V74.5469H665.95V69.5669C664.574 70.3745 663.064 71.1372 661.419 71.855C659.803 72.5728 658.039 73.2009 656.125 73.7393C654.21 74.2777 652.147 74.6964 649.933 74.9955C647.75 75.3245 645.432 75.489 642.979 75.489C638.852 75.489 635.218 75.0404 632.077 74.1431C628.967 73.2458 626.364 72.0046 624.271 70.4193C622.177 68.8341 620.592 66.9797 619.515 64.8561C618.468 62.7026 617.945 60.3697 617.945 57.8573ZM631.943 57.4086C631.943 58.276 632.167 59.1135 632.616 59.921C633.064 60.6987 633.782 61.4016 634.769 62.0297C635.756 62.6279 637.012 63.1214 638.538 63.5102C640.093 63.8691 641.962 64.0486 644.146 64.0486C646.479 64.0486 648.737 63.8392 650.92 63.4205C653.104 63.0017 655.138 62.4484 657.022 61.7605C658.906 61.0726 660.611 60.28 662.136 59.3827C663.662 58.4854 664.933 57.5582 665.95 56.6011V54.2681C663.916 53.6998 661.897 53.2213 659.893 52.8324C657.919 52.4436 656.02 52.1445 654.195 51.9352C652.401 51.6959 650.696 51.5314 649.081 51.4416C647.496 51.3519 646.105 51.307 644.908 51.307C642.426 51.307 640.362 51.4716 638.717 51.8006C637.072 52.1296 635.741 52.5782 634.724 53.1465C633.707 53.6849 632.989 54.3279 632.571 55.0757C632.152 55.8234 631.943 56.6011 631.943 57.4086ZM703.816 14.3835C702.5 14.3835 701.303 14.2041 700.226 13.8452C699.18 13.4563 698.282 12.9479 697.535 12.3198C696.787 11.6618 696.204 10.914 695.785 10.0765C695.396 9.20917 695.202 8.29692 695.202 7.33981C695.202 6.35279 695.396 5.44055 695.785 4.60308C696.204 3.7357 696.787 2.98795 697.535 2.35985C698.282 1.73175 699.18 1.23824 700.226 0.87932C701.303 0.490494 702.5 0.296081 703.816 0.296081C705.162 0.296081 706.358 0.490494 707.405 0.87932C708.481 1.23824 709.394 1.73175 710.141 2.35985C710.889 2.98795 711.458 3.7357 711.846 4.60308C712.265 5.44055 712.474 6.35279 712.474 7.33981C712.474 8.29692 712.265 9.20917 711.846 10.0765C711.458 10.914 710.889 11.6618 710.141 12.3198C709.394 12.9479 708.481 13.4563 707.405 13.8452C706.358 14.2041 705.162 14.3835 703.816 14.3835ZM697.176 21.6067H710.456V66.6059C710.456 69.2379 710.336 71.6307 710.097 73.7842C709.887 75.9078 709.513 77.8818 708.975 79.7063C708.467 81.5308 707.764 83.2356 706.866 84.8209C705.999 86.4061 704.907 87.9315 703.591 89.397C702.275 90.8626 700.705 92.3132 698.88 93.7489C697.056 95.2145 694.947 96.7399 692.555 98.3251L687.664 87.0641C689.519 85.6882 691.059 84.3273 692.285 82.9814C693.512 81.6355 694.484 80.2297 695.202 78.7641C695.919 77.2986 696.428 75.7283 696.727 74.0534C697.026 72.3784 697.176 70.539 697.176 68.535V21.6067Z" fill="white"/>
</svg>
